<svg id="Capa_1" enable-background="new 0 0 512 512" height="512" viewBox="0 0 512 512" width="512" xmlns="http://www.w3.org/2000/svg" xmlns:xlink="http://www.w3.org/1999/xlink"><linearGradient id="SVGID_1_" gradientUnits="userSpaceOnUse" x1="256" x2="256" y1="391" y2="121"><stop offset="0" stop-color="#00b59c"/><stop offset="1" stop-color="#9cffac"/></linearGradient><g><g><path d="m407 241c-8.284 0-15 6.714-15 15 0 8.284 6.716 15 15 15s15-6.716 15-15c0-8.286-6.716-15-15-15zm90-120h-482c-8.291 0-15 6.709-15 15v240c0 8.291 6.709 15 15 15h482c8.291 0 15-6.709 15-15v-240c0-8.291-6.709-15-15-15zm-467 30h27.237c-4.532 12.708-14.529 22.705-27.237 27.237zm0 210v-27.237c12.708 4.532 22.705 14.529 27.237 27.237zm58.482 0c-5.98-29.343-29.139-52.502-58.482-58.482v-93.036c29.343-5.98 52.502-29.139 58.482-58.482h102.34c-24.073 24.76-39.822 62.373-39.822 105s15.749 80.24 39.822 105zm167.518 0c-41.353 0-75-47.109-75-105s33.647-105 75-105 75 47.109 75 105-33.647 105-75 105zm226 0h-27.237c4.532-12.708 14.529-22.705 27.237-27.237zm0-58.482c-29.343 5.98-52.502 29.139-58.482 58.482h-102.34c24.073-24.76 39.822-62.373 39.822-105s-15.749-80.24-39.822-105h102.34c5.98 29.343 29.139 52.502 58.482 58.482zm0-124.281c-12.708-4.532-22.705-14.529-27.237-27.237h27.237zm-377 62.763c-8.284 0-15 6.714-15 15 0 8.284 6.716 15 15 15s15-6.716 15-15c0-8.286-6.716-15-15-15z" fill="url(#SVGID_1_)"/></g></g></svg>